#!OML:ASF F:\VICON\USERDATA\INSTALL\rory3\rory3.ASF
:FULLY-SPECIFIED
:DEGREES
94
root 5.60567 18.7564 7.19651 -174.945 -60.5252 178.065
lowerback 7.75845 -2.61455 -1.75335
upperback 1.86465 -3.67212 0.243031
thorax -2.28872 -1.84806 1.58207
lowerneck -10.25 -4.86038 -8.73177
upperneck 11.9458 -7.26939 12.8663
head 6.09467 -3.13609 4.90682
rclavicle 3.62968e-014 -8.39865e-015
rhumerus -11.9615 -23.8244 -56.5333
rradius 78.1633
rwrist -7.93721
rhand -38.3545 -1.87575
rfingers 7.12502
rthumb -11.3812 -31.5469
lclavicle 3.62968e-014 -8.39865e-015
lhumerus -11.8673 -14.5772 86.7461
lradius 36.2909
lwrist 13.0342
lhand -20.0925 29.9312
lfingers 7.12502
lthumb 6.25047 59.819
rfemur -21.9207 18.8305 18.9551
rtibia 26.0612
rfoot -9.65903 -23.9645
rtoes 12.1199
lfemur 1.13667 7.00682 -22.2981
ltibia 23.9754
lfoot -19.5479 15.7149
ltoes -16.5886
95
root 5.55834 18.7583 7.128 -174.584 -59.9113 177.704
lowerback 7.51671 -2.54369 -2.00424
upperback 1.81508 -3.59067 0.239693
thorax -2.19361 -1.80627 1.69955
lowerneck -10.2284 -4.83525 -8.71308
upperneck 12.0574 -7.2324 12.7417
head 6.1156 -3.12452 4.86786
rclavicle -6.37105e-014 -2.90723e-015
rhumerus -11.2066 -23.6539 -56.8879
rradius 78.4955
rwrist -7.72413
rhand -38.2734 -2.50229
rfingers 7.12502
rthumb -11.3029 -32.1777
lclavicle -6.37105e-014 -2.90723e-015
lhumerus -12.1792 -14.8826 86.8913
lradius 36.8753
lwrist 13.5669
lhand -20.1561 29.8012
lfingers 7.12502
lthumb 6.18914 59.6908
rfemur -21.9239 18.9065 18.9568
rtibia 26.3523
rfoot -9.88646 -23.4075
rtoes 12.2781
lfemur 0.680671 7.99038 -22.1815
ltibia 25.2308
lfoot -18.8397 15.2213
ltoes -18.4507
96
root 5.51033 18.761 7.07191 -174.31 -59.2864 177.4
lowerback 7.42107 -2.46369 -2.06896
upperback 1.73431 -3.48663 0.188089
thorax -2.22765 -1.75184 1.67107
lowerneck -10.2663 -4.79201 -8.58818
upperneck 12.2181 -7.18989 12.6083
head 6.15768 -3.10413 4.80801
rclavicle 8.56948e-015 9.05713e-015
rhumerus -10.577 -23.4857 -57.2361
rradius 78.8147
rwrist -7.59886
rhand -38.2358 -3.39318
rfingers 7.12502
rthumb -11.2667 -33.0706
lclavicle 8.56948e-015 9.05713e-015
lhumerus -12.4926 -15.2598 87.0389
lradius 37.4218
lwrist 14.032
lhand -20.1881 29.9735
lfingers 7.12502
lthumb 6.1582 59.864
rfemur -21.9375 18.557 18.9783
rtibia 26.6354
rfoot -9.95464 -22.4333
rtoes 12.2168
lfemur 0.136811 8.82216 -22.1076
ltibia 26.6598
lfoot -18.383 14.6554
ltoes -18.9753
97
root 5.45958 18.7618 7.01842 -174.359 -58.7458 177.263
lowerback 7.46282 -2.42129 -1.99818
upperback 1.72597 -3.42766 0.138416
thorax -2.2692 -1.72235 1.57787
lowerneck -10.3118 -4.74505 -8.53816
upperneck 12.3939 -7.1421 12.539
head 6.21044 -3.0802 4.78237
rclavicle 1.89591e-014 5.0628e-015
rhumerus -9.90602 -23.2661 -57.5546
rradius 79.0464
rwrist -7.43472
rhand -38.6445 -3.68696
rfingers 7.12502
rthumb -11.6608 -33.3425
lclavicle 1.89591e-014 5.0628e-015
lhumerus -12.843 -15.629 87.112
lradius 38.0125
lwrist 14.3594
lhand -20.1259 30.3351
lfingers 7.12502
lthumb 6.2183 60.2239
rfemur -21.6728 18.0464 19.1918
rtibia 26.8658
rfoot -9.8963 -21.4437
rtoes 11.3363
lfemur -0.305545 9.57498 -21.9232
ltibia 28.2785
lfoot -17.9175 14.1175
ltoes -19.6191
98
root 5.40787 18.7598 6.96115 -174.689 -58.2512 177.38
lowerback 7.49044 -2.39875 -1.80198
upperback 1.758 -3.38451 0.136173
thorax -2.26477 -1.70276 1.46282
lowerneck -10.2557 -4.70914 -8.54828
upperneck 12.4511 -7.08915 12.4613
head 6.20972 -3.06161 4.76533
rclavicle -6.55524e-015 -2.67117e-015
rhumerus -9.20437 -22.9931 -57.8264
rradius 79.1471
rwrist -7.37231
rhand -38.8917 -2.95469
rfingers 7.12502
rthumb -11.8992 -32.5965
lclavicle -6.55524e-015 -2.67117e-015
lhumerus -13.1312 -15.7923 87.1746
lradius 38.4875
lwrist 14.5046
lhand -19.6057 30.4204
lfingers 7.12502
lthumb 6.72047 60.2938
rfemur -21.2525 17.6339 19.5993
rtibia 27.0306
rfoot -9.8565 -20.6322
rtoes 10.6987
lfemur -0.76098 10.2508 -21.55
ltibia 30.0483
lfoot -17.3341 13.6245
ltoes -20.4866
99
root 5.35446 18.7544 6.9023 -175.175 -57.8303 177.725
lowerback 7.47432 -2.38245 -1.46087
upperback 1.77752 -3.33566 0.184197
thorax -2.25407 -1.68052 1.31626
lowerneck -10.2717 -4.70202 -8.62095
upperneck 12.5494 -7.06708 12.4015
head 6.24084 -3.05609 4.76079
rclavicle -2.40685e-014 8.19987e-016
rhumerus -8.59333 -22.8305 -58.0805
rradius 79.3306
rwrist -7.26127
rhand -38.7125 -2.59828
rfingers 7.12502
rthumb -11.7264 -32.2501
lclavicle -2.40685e-014 8.19987e-016
lhumerus -13.3952 -16.1622 87.2927
lradius 38.9616
lwrist 14.9395
lhand -19.2634 30.1278
lfingers 7.12502
lthumb 7.05089 59.9904
rfemur -20.8286 17.3207 20.1002
rtibia 27.1456
rfoot -9.96477 -19.9344
rtoes 10.4994
lfemur -1.28751 10.9142 -21.0046
ltibia 31.948
lfoot -16.749 12.9164
ltoes -20.7001
100
root 5.30521 18.7495 6.83841 -175.592 -57.3621 178.064
lowerback 7.38202 -2.39871 -1.23516
upperback 1.77515 -3.33663 0.256289
thorax -2.21379 -1.68225 1.26002
lowerneck -10.1554 -4.65327 -8.71398
upperneck 12.5266 -6.98863 12.3897
head 6.20704 -3.0279 4.78213
rclavicle 1.76918e-014 4.17448e-015
rhumerus -7.84813 -22.5553 -58.4947
rradius 79.4968
rwrist -6.85311
rhand -38.5902 -2.49721
rfingers 7.12502
rthumb -11.6085 -32.1557
lclavicle 1.76918e-014 4.17448e-015
lhumerus -13.7297 -16.449 87.3812
lradius 39.543
lwrist 15.6227
lhand -19.4247 30.2479
lfingers 7.12502
lthumb 6.89517 60.1156
rfemur -20.4922 17.4884 20.5166
rtibia 27.2449
rfoot -10.3639 -19.6133
rtoes 10.9858
lfemur -1.95804 11.6949 -20.415
ltibia 33.9588
lfoot -15.9669 12.2244
ltoes -21.6535
101
root 5.25662 18.7465 6.77947 -175.904 -56.8471 178.28
lowerback 7.33401 -2.40528 -0.975891
upperback 1.7613 -3.32579 0.223443
thorax -2.21843 -1.67765 1.07882
lowerneck -10.024 -4.5575 -8.59752
upperneck 12.4867 -6.87855 12.3545
head 6.1537 -2.97847 4.76346
rclavicle -1.68532e-014 -3.45388e-015
rhumerus -7.17393 -22.2975 -58.9859
rradius 79.5822
rwrist -6.46957
rhand -39.0552 -2.01372
rfingers 7.12502
rthumb -12.0569 -31.6464
lclavicle -1.68532e-014 -3.45388e-015
lhumerus -14.0557 -16.7036 87.3554
lradius 40.08
lwrist 16.1174
lhand -19.2872 30.2557
lfingers 7.12502
lthumb 7.02792 60.119
rfemur -20.1543 17.5359 20.8677
rtibia 27.328
rfoot -10.539 -19.1538
rtoes 10.9427
lfemur -2.69746 12.526 -19.8839
ltibia 36.0394
lfoot -14.914 11.593
ltoes -22.8579
102
root 5.2108 18.7414 6.72097 -176.244 -56.3132 178.451
lowerback 7.35711 -2.35073 -0.751157
upperback 1.78626 -3.23834 0.205229
thorax -2.22112 -1.63574 0.927459
lowerneck -9.97035 -4.51098 -8.49635
upperneck 12.4692 -6.81338 12.2369
head 6.12381 -2.95215 4.71495
rclavicle -2.52022e-014 -6.01324e-015
rhumerus -6.5779 -22.1257 -59.313
rradius 79.6908
rwrist -6.21453
rhand -39.5867 -1.45139
rfingers 7.12502
rthumb -12.5693 -31.0533
lclavicle -2.52022e-014 -6.01324e-015
lhumerus -14.2364 -17.1077 87.4089
lradius 40.4464
lwrist 16.5133
lhand -19.1377 30.1147
lfingers 7.12502
lthumb 7.17224 59.9731
rfemur -19.7569 17.1264 21.2817
rtibia 27.4178
rfoot -10.5054 -18.2758
rtoes 10.366
lfemur -3.40422 13.3823 -19.3258
ltibia 38.1539
lfoot -13.783 10.8609
ltoes -23.4936
103
root 5.16743 18.7356 6.66178 -176.67 -55.7683 178.698
lowerback 7.45753 -2.29852 -0.573008
upperback 1.77821 -3.15547 0.26336
thorax -2.29312 -1.59508 0.885396
lowerneck -9.88998 -4.49452 -8.49415
upperneck 12.5191 -6.76738 12.0376
head 6.11279 -2.94406 4.65557
rclavicle 2.42828e-014 -5.46658e-016
rhumerus -5.9306 -21.8774 -59.642
rradius 79.7673
rwrist -5.91281
rhand -39.7747 -1.22049
rfingers 7.12502
rthumb -12.7506 -30.8112
lclavicle 2.42828e-014 -5.46658e-016
lhumerus -14.4534 -17.3867 87.556
lradius 40.7834
lwrist 16.9358
lhand -19.2837 30.3899
lfingers 7.12502
lthumb 7.03133 60.2531
rfemur -19.3676 16.7892 21.7196
rtibia 27.527
rfoot -10.6284 -17.4051
rtoes 10.2678
lfemur -4.13146 13.952 -18.7502
ltibia 40.2849
lfoot -12.6307 10.3141
ltoes -23.8501
104
root 5.12594 18.7288 6.60639 -176.924 -55.2349 178.815
lowerback 7.48509 -2.24386 -0.408123
upperback 1.76417 -3.07037 0.265508
thorax -2.33292 -1.55325 0.789506
lowerneck -9.7145 -4.46248 -8.42018
upperneck 12.4645 -6.71381 11.8717
head 6.05073 -2.93207 4.59637
rclavicle 1.03244e-014 -4.72114e-015
rhumerus -5.27345 -21.6313 -59.9914
rradius 79.8384
rwrist -5.6582
rhand -39.7324 -1.84277
rfingers 7.12502
rthumb -12.7098 -31.436
lclavicle 1.03244e-014 -4.72114e-015
lhumerus -14.6514 -17.6676 87.6395
lradius 41.1343
lwrist 17.3608
lhand -19.4544 30.6343
lfingers 7.12502
lthumb 6.86655 60.5029
rfemur -19.0653 16.6239 22.0242
rtibia 27.6421
rfoot -10.7447 -16.705
rtoes 10.2242
lfemur -4.98062 14.2433 -18.3446
ltibia 42.4406
lfoot -11.4292 10.0082
ltoes -23.4227
